<svg width="77" height="87" viewBox="0 0 77 87" fill="none" xmlns="http://www.w3.org/2000/svg">
<path d="M38.5 86.9438L0.126221 60.8606V26.0831L38.5 52.1663V86.9438Z" fill="#89664C"/>
<path d="M38.5 52.1663V86.9438L76.8737 60.8606V26.0831L38.5 52.1663Z" fill="#FED0AC"/>
<path d="M0.126221 26.0831L38.5 52.1663L76.8737 26.0831L38.5 0L0.126221 26.0831Z" fill="#D3976E"/>
<path d="M61.1645 36.6795L22.9107 10.5963L15.7156 15.4869L54.0893 41.57L61.1645 36.6795Z" fill="#89664C"/>
<path d="M47.2539 9.23776L38.7397 3.26038L31.6646 8.15096L40.1787 13.9925L47.2539 9.23776Z" fill="#D0D0D0"/>
<path d="M61.0445 36.8153L54.3291 41.4342V53.9324L61.0445 49.3135V36.8153Z" fill="#D3976E"/>
<path d="M74.8351 30.2944L67.9998 34.9133V47.4115L74.8351 42.7926V30.2944ZM49.7723 59.3663L40.5386 65.6153V82.7324L49.7723 76.3475V59.3663Z" fill="white"/>
<path d="M54.3291 73.6305L61.0445 69.0116V56.5134L54.3291 61.1323V73.6305Z" fill="#D3976E"/>
</svg>
