<svg width="181" height="151" viewBox="0 0 181 151" fill="none" xmlns="http://www.w3.org/2000/svg">
<path d="M122.378 33.721C140.299 43.7342 171.343 33.8159 179.377 52.7068C187.136 70.9504 161.297 86.354 152.269 104.004C145.112 117.995 145.514 137.248 132.017 145.297C118.637 153.276 102.043 142.82 86.47 143.243C70.1109 143.687 53.6729 154.645 38.7959 147.826C23.1252 140.644 14.6655 123.591 8.48293 107.5C2.00177 90.6314 -3.21204 71.8271 3.08829 54.8903C9.30115 38.1885 26.2646 28.9794 41.2682 19.3648C55.4412 10.2826 70.4471 -1.83017 87.0227 1.10367C103.208 3.96836 108.029 25.7037 122.378 33.721Z" fill="#EFE9DB"/>
</svg>
