<svg width="28" height="23" viewBox="0 0 28 23" fill="none" xmlns="http://www.w3.org/2000/svg">
<path d="M2.54545 3.78407V1.94218C2.54778 1.6212 2.68151 1.31398 2.91774 1.08689C3.15398 0.859804 3.47376 0.731076 3.808 0.728516H26.7375C27.4349 0.728516 28 1.2724 28 1.94218V21.5148C27.9977 21.8358 27.8639 22.143 27.6277 22.3701C27.3915 22.5972 27.0717 22.726 26.7375 22.7285H3.808C3.47304 22.7282 3.15191 22.6002 2.91517 22.3726C2.67843 22.145 2.54545 21.8365 2.54545 21.5148V20.2841H25.4545V5.98407L15.2727 14.7841L2.54545 3.78407ZM0 9.28407H6.36364V11.7285H0V9.28407ZM0 15.3952H10.1818V17.8396H0V15.3952Z" fill="#6F1D1B"/>
</svg>
