<svg width="23" height="26" viewBox="0 0 23 26" fill="none" xmlns="http://www.w3.org/2000/svg">
<path d="M8.13433 11.3423C9.33332 13.6318 11.0777 15.5279 13.1841 16.8312L14.3137 15.1117C14.4953 14.8353 14.7639 14.6407 15.0686 14.565C15.3733 14.4892 15.6929 14.5375 15.9671 14.7006C17.7743 15.7741 19.77 16.4198 21.8232 16.5951C22.1436 16.6227 22.4427 16.7805 22.6608 17.0372C22.8789 17.2938 23 17.6304 23 17.9798V24.177C23.0001 24.5209 22.8828 24.8526 22.6708 25.1079C22.4588 25.3631 22.1673 25.5239 21.8526 25.559C21.1753 25.6353 20.493 25.6729 19.8056 25.6729C8.86778 25.6729 0 16.034 0 4.14507C0 3.39785 0.0345 2.65618 0.104778 1.92007C0.137048 1.57799 0.284924 1.26107 0.519787 1.03068C0.75465 0.800278 1.0598 0.672777 1.37617 0.672852H7.07761C7.39905 0.672808 7.7087 0.804451 7.94481 1.04153C8.18093 1.27862 8.32616 1.60372 8.35156 1.95202C8.51284 4.18367 9.10682 6.35296 10.0944 8.3173C10.2445 8.6153 10.2889 8.96277 10.2192 9.29396C10.1495 9.62514 9.97058 9.91708 9.71622 10.1145L8.13433 11.3423ZM4.91178 10.4298L7.33956 8.54507C6.65056 6.92854 6.1785 5.21291 5.93783 3.45063H2.56833C2.56067 3.68118 2.55683 3.91313 2.55683 4.14507C2.55556 14.5006 10.2784 22.8951 19.8056 22.8951C20.0189 22.8951 20.2323 22.8909 20.4444 22.8812V19.2187C18.8231 18.9571 17.2448 18.444 15.7576 17.6951L14.0236 20.334C13.3255 20.0391 12.6475 19.691 11.9945 19.2923L11.9204 19.2465C9.41413 17.6961 7.33864 15.4401 5.91228 12.7159L5.87011 12.6354C5.50327 11.9256 5.18303 11.1886 4.91178 10.4298Z" fill="#6F1D1B"/>
</svg>
