<svg width="32" height="33" viewBox="0 0 32 33" fill="none" xmlns="http://www.w3.org/2000/svg">
<path d="M17.394 28.9084C20.5487 28.507 23.4322 26.9194 25.4584 24.4684C27.4846 22.0173 28.5015 18.8867 28.3023 15.7128C28.1032 12.5389 26.703 9.55992 24.3863 7.38134C22.0696 5.20275 19.0103 3.98805 15.8302 3.98411C12.6462 3.98173 9.58105 5.19347 7.25937 7.37242C4.9377 9.55137 3.53417 12.5336 3.33479 15.7113C3.13541 18.8891 4.15517 22.0233 6.18628 24.4754C8.21739 26.9274 11.107 28.5128 14.2664 28.9084V19.6224H11.1387V16.4947H14.2664V13.9082C14.2664 11.8173 14.4853 11.0589 14.8919 10.2942C15.2924 9.53756 15.9115 8.91906 16.6684 8.51921C17.2658 8.19863 18.0086 8.00628 19.3066 7.92339C19.8211 7.89055 20.4873 7.93121 21.3052 8.0485V11.0198H20.5217C19.0877 11.0198 18.495 11.087 18.1415 11.2762C17.9306 11.3847 17.759 11.5564 17.6505 11.7673C17.4628 12.1207 17.394 12.471 17.394 13.9066V16.4947H21.3036L20.5217 19.6224H17.394V28.9084ZM15.8302 32.133C7.19316 32.133 0.191895 25.1318 0.191895 16.4947C0.191895 7.85771 7.19316 0.856445 15.8302 0.856445C24.4672 0.856445 31.4685 7.85771 31.4685 16.4947C31.4685 25.1318 24.4672 32.133 15.8302 32.133Z" fill="#6F1D1B"/>
</svg>
