<svg width="32" height="33" viewBox="0 0 32 33" fill="none" xmlns="http://www.w3.org/2000/svg">
<path d="M15.7657 11.8033C14.5215 11.8033 13.3282 12.2975 12.4484 13.1774C11.5685 14.0572 11.0743 15.2505 11.0743 16.4947C11.0743 17.739 11.5685 18.9323 12.4484 19.8121C13.3282 20.692 14.5215 21.1862 15.7657 21.1862C17.01 21.1862 18.2033 20.692 19.0831 19.8121C19.9629 18.9323 20.4572 17.739 20.4572 16.4947C20.4572 15.2505 19.9629 14.0572 19.0831 13.1774C18.2033 12.2975 17.01 11.8033 15.7657 11.8033ZM15.7657 8.67559C17.8395 8.67559 19.8283 9.4994 21.2947 10.9658C22.7611 12.4321 23.5849 14.421 23.5849 16.4947C23.5849 18.5685 22.7611 20.5573 21.2947 22.0237C19.8283 23.4901 17.8395 24.3139 15.7657 24.3139C13.692 24.3139 11.7031 23.4901 10.2368 22.0237C8.77039 20.5573 7.94659 18.5685 7.94659 16.4947C7.94659 14.421 8.77039 12.4321 10.2368 10.9658C11.7031 9.4994 13.692 8.67559 15.7657 8.67559ZM25.9306 8.28464C25.9306 8.80308 25.7247 9.30029 25.3581 9.66688C24.9915 10.0335 24.4943 10.2394 23.9758 10.2394C23.4574 10.2394 22.9602 10.0335 22.5936 9.66688C22.227 9.30029 22.0211 8.80308 22.0211 8.28464C22.0211 7.7662 22.227 7.26899 22.5936 6.90239C22.9602 6.5358 23.4574 6.32985 23.9758 6.32985C24.4943 6.32985 24.9915 6.5358 25.3581 6.90239C25.7247 7.26899 25.9306 7.7662 25.9306 8.28464ZM15.7657 3.98411C11.8968 3.98411 11.265 3.99505 9.46507 4.07481C8.23903 4.13267 7.41645 4.29687 6.6533 4.594C5.9746 4.85672 5.48512 5.17105 4.96437 5.69337C4.4749 6.16627 4.09856 6.74361 3.86343 7.38231C3.5663 8.14858 3.4021 8.96959 3.3458 10.1941C3.26448 11.9205 3.2551 12.5242 3.2551 16.4947C3.2551 20.3637 3.26605 20.9954 3.3458 22.7954C3.40367 24.0199 3.56787 24.844 3.86343 25.6056C4.12928 26.2859 4.44205 26.7754 4.96124 27.2946C5.48825 27.82 5.97773 28.1343 6.65018 28.3939C7.42271 28.6926 8.24528 28.8584 9.46507 28.9147C11.1915 28.996 11.7952 29.0054 15.7657 29.0054C19.6347 29.0054 20.2664 28.9944 22.0664 28.9147C23.2893 28.8568 24.1135 28.6926 24.8766 28.3971C25.5538 28.1328 26.0464 27.8184 26.5655 27.2992C27.0926 26.7722 27.4069 26.2828 27.6665 25.6103C27.9636 24.8393 28.1294 24.0152 28.1857 22.7954C28.267 21.0689 28.2764 20.4653 28.2764 16.4947C28.2764 12.6258 28.2654 11.994 28.1857 10.1941C28.1278 8.97116 27.9636 8.14546 27.6665 7.38231C27.4308 6.74427 27.0551 6.16715 26.5671 5.69337C26.0944 5.20365 25.517 4.82727 24.8782 4.59243C24.1119 4.29531 23.2893 4.13111 22.0664 4.07481C20.3399 3.99349 19.7363 3.98411 15.7657 3.98411ZM15.7657 0.856445C20.0147 0.856445 20.5448 0.872084 22.2118 0.950275C23.8773 1.02847 25.0111 1.28963 26.0088 1.67746C27.041 2.07467 27.9104 2.61263 28.7799 3.48055C29.5751 4.2623 30.1904 5.20794 30.583 6.25166C30.9693 7.24782 31.232 8.38316 31.3102 10.0486C31.3837 11.7157 31.404 12.2458 31.404 16.4947C31.404 20.7437 31.3884 21.2738 31.3102 22.9409C31.232 24.6063 30.9693 25.7401 30.583 26.7378C30.1916 27.7821 29.5761 28.728 28.7799 29.5089C27.998 30.3039 27.0524 30.9191 26.0088 31.312C25.0127 31.6983 23.8773 31.961 22.2118 32.0392C20.5448 32.1127 20.0147 32.133 15.7657 32.133C11.5168 32.133 10.9867 32.1174 9.31963 32.0392C7.65415 31.961 6.52038 31.6983 5.52265 31.312C4.47853 30.9203 3.53272 30.3048 2.75155 29.5089C1.95619 28.7273 1.34087 27.7816 0.948452 26.7378C0.560622 25.7417 0.299463 24.6063 0.221271 22.9409C0.147771 21.2738 0.127441 20.7437 0.127441 16.4947C0.127441 12.2458 0.14308 11.7157 0.221271 10.0486C0.299463 8.38159 0.560622 7.24938 0.948452 6.25166C1.33978 5.2073 1.95525 4.2614 2.75155 3.48055C3.53295 2.68492 4.47869 2.06955 5.52265 1.67746C6.52038 1.28963 7.65259 1.02847 9.31963 0.950275C10.9867 0.876775 11.5168 0.856445 15.7657 0.856445Z" fill="#6F1D1B"/>
</svg>
