<svg width="33" height="27" viewBox="0 0 33 27" fill="none" xmlns="http://www.w3.org/2000/svg">
<path d="M22.4584 3.35111C21.2699 3.35091 20.1287 3.81732 19.2806 4.64997C18.4324 5.48263 17.945 6.61497 17.9233 7.80333L17.8795 10.2664C17.877 10.3986 17.8465 10.5288 17.7901 10.6484C17.7336 10.7681 17.6526 10.8744 17.5521 10.9605C17.4517 11.0466 17.3342 11.1105 17.2074 11.148C17.0806 11.1855 16.9472 11.1957 16.8161 11.1781L14.375 10.8465C11.1629 10.4087 8.08527 8.92929 5.13276 6.46938C4.19759 11.6457 6.02415 15.2315 10.4232 17.9979L13.1552 19.715C13.285 19.7966 13.3929 19.9087 13.4693 20.0416C13.5457 20.1745 13.5885 20.3241 13.5937 20.4774C13.5989 20.6306 13.5666 20.7828 13.4994 20.9206C13.4322 21.0584 13.3323 21.1776 13.2084 21.2679L10.7188 23.0866C12.1997 23.1789 13.6056 23.1132 14.7722 22.8818C22.1504 21.4086 27.0561 15.8571 27.0561 6.69927C27.0561 5.95176 25.4735 3.35111 22.4584 3.35111ZM14.7957 7.74547C14.823 6.23801 15.2944 4.77211 16.1508 3.53129C17.0073 2.29048 18.2108 1.32989 19.6106 0.769798C21.0104 0.209708 22.5443 0.0750077 24.0203 0.382563C25.4963 0.690117 26.8488 1.42626 27.9084 2.49882C29.0203 2.491 29.9664 2.77249 32.0822 1.49015C31.5584 4.05483 31.3003 5.16828 30.1838 6.69927C30.1838 18.6501 22.8384 24.4612 15.3852 25.9484C10.2746 26.9681 2.84332 25.2932 0.713379 23.0694C1.79868 22.985 6.20868 22.5111 8.75772 20.6455C6.6012 19.224 -1.98266 14.1728 3.65807 0.592511C6.30563 3.6842 8.99073 5.78912 11.7118 6.90569C13.5227 7.64851 13.9668 7.63287 14.7972 7.74703L14.7957 7.74547Z" fill="#6F1D1B"/>
</svg>
